<svg data-v-423bf9ae="" xmlns="http://www.w3.org/2000/svg" viewBox="0 0 491 107" class="iconLeft"><!----><!----><!----><g data-v-423bf9ae="" id="cceab013-ceb6-4bbe-bc4b-db9b5da85b38" fill="white" transform="matrix(5.830903811703725,0,0,5.830903811703725,101.26511948428816,3.152132762996054)"><path d="M6.92 13.52C7.10 13.52 7.15 13.38 7.15 13.24C7.15 12.96 7.13 12.88 6.90 12.85C5.81 12.75 5.63 12.81 5.63 12.45L5.63 5.11C5.63 4.93 5.64 4.73 5.94 4.73L7.99 4.73C8.43 4.73 8.40 4.82 9.06 5.96C9.11 6.06 9.20 6.23 9.38 6.23C9.53 6.23 9.65 6.09 9.65 5.92C9.65 5.84 9.59 5.56 9.31 4.13C9.28 3.95 9.25 3.81 9.03 3.81L0.87 3.81C0.76 3.81 0.62 3.82 0.57 4.02C0.18 5.82 0.17 5.87 0.17 5.95L0.17 5.96C0.17 6.16 0.29 6.31 0.48 6.31C0.74 6.31 0.76 6.15 1.33 5.01C1.43 4.82 1.48 4.73 1.86 4.73L3.95 4.73C4.31 4.73 4.33 4.97 4.33 5.17L4.33 12.26C4.33 12.54 4.27 12.74 3.85 12.78C2.98 12.87 2.83 12.81 2.83 13.16C2.83 13.36 2.88 13.52 3.11 13.52C3.16 13.52 4.00 13.44 5.01 13.44C6.03 13.44 6.85 13.52 6.92 13.52ZM11.14 4.79C11.14 5.17 11.44 5.45 11.80 5.45C12.17 5.45 12.49 5.15 12.49 4.77C12.49 4.42 12.18 4.13 11.82 4.13C11.45 4.13 11.14 4.42 11.14 4.79ZM11.00 11.75L11.00 12.40C11.00 12.66 10.98 12.85 10.63 12.91C10.00 12.99 9.94 12.96 9.94 13.29C9.94 13.43 10.01 13.52 10.15 13.52C10.19 13.52 10.74 13.44 11.44 13.44C12.12 13.44 12.68 13.52 12.73 13.52C12.88 13.52 12.89 13.33 12.89 13.22C12.89 12.98 12.73 12.99 12.26 12.92C11.96 12.88 11.94 12.84 11.94 11.13L11.94 10.67C11.94 8.96 12.03 7.60 12.03 7.49C12.03 7.32 11.91 7.27 11.83 7.27L11.82 7.27C11.75 7.27 11.73 7.29 10.28 7.99C10.12 8.06 9.90 8.12 9.90 8.29C9.90 8.40 10.00 8.44 10.07 8.47C10.96 8.83 11.02 8.82 11.02 9.04C11.02 9.31 11.00 10.12 11.00 11.75ZM13.65 8.33L14.10 8.33C14.18 8.33 14.20 8.39 14.20 8.46C14.20 8.76 14.14 10.93 14.14 11.55C14.14 11.70 14.14 11.84 14.15 12.00C14.25 13.31 15.01 13.71 15.57 13.71C16.34 13.71 17.02 13.01 17.51 12.45C17.54 12.40 17.61 12.32 17.61 12.21C17.61 12.08 17.51 11.96 17.36 11.96C17.05 11.96 16.51 12.80 15.83 12.80C15.25 12.80 15.12 12.25 15.12 11.76C15.12 11.42 15.12 11.10 15.13 8.48C15.13 8.39 15.18 8.36 15.27 8.36L16.91 8.36C17.04 8.36 17.11 8.34 17.16 8.29C17.23 8.20 17.29 7.97 17.29 7.88C17.29 7.62 17.05 7.62 16.93 7.62C16.88 7.62 16.86 7.60 16.81 7.60L15.55 7.60C15.39 7.60 15.27 7.56 15.27 7.32C15.27 7.13 15.29 6.54 15.29 6.34C15.29 6.16 15.19 6.12 15.11 6.12C14.95 6.12 14.87 6.30 14.83 6.37C14.07 7.66 13.37 7.91 13.37 8.15C13.37 8.32 13.52 8.33 13.65 8.33ZM18.16 8.61C18.16 8.93 18.45 9.11 18.72 9.11C18.90 9.11 18.98 9.02 19.03 8.96C19.05 8.90 19.43 8.02 20.23 8.02C20.59 8.02 20.87 8.22 21.04 8.40C21.32 8.72 21.38 9.07 21.38 9.52L21.38 10.02C21.38 10.12 21.36 10.19 21.27 10.22C21.24 10.23 19.56 10.29 18.80 10.89C18.47 11.16 18.21 11.61 18.21 12.14L18.21 12.15C18.21 13.01 18.84 13.72 19.81 13.72C20.33 13.72 20.79 13.54 21.11 13.33C21.46 13.09 21.42 13.02 21.49 13.02C21.50 13.02 21.50 13.03 21.52 13.03C21.55 13.05 21.88 13.61 22.51 13.61C23.24 13.61 23.59 12.82 23.59 12.50C23.59 12.38 23.52 12.32 23.46 12.32C23.25 12.32 23.28 12.78 22.85 12.78C22.71 12.78 22.37 12.71 22.37 12.17L22.37 9.41C22.37 9.24 22.36 9.07 22.34 8.90C22.20 7.53 20.85 7.36 20.31 7.36C19.15 7.36 18.16 8.11 18.16 8.61ZM20.15 12.95C19.96 12.95 19.71 12.92 19.54 12.77C19.32 12.57 19.25 12.22 19.25 12.00C19.25 11.65 19.40 11.40 19.59 11.24C20.05 10.81 21 10.74 21.25 10.74C21.38 10.74 21.39 10.81 21.39 11.14L21.39 11.72L21.39 12.05C21.39 12.18 21.38 12.28 21.31 12.38C21.24 12.47 20.83 12.95 20.15 12.95ZM25.65 8.16C25.65 8.15 25.66 8.11 25.66 8.08L25.66 7.53C25.66 7.42 25.62 7.32 25.49 7.32C25.44 7.32 25.40 7.35 25.35 7.38C24.05 8.08 24.02 8.06 24.02 8.18L24.02 8.19C24.02 8.25 24.07 8.29 24.11 8.33C24.74 8.81 24.74 8.78 24.74 9.11L24.74 12.46C24.74 12.70 24.72 12.88 24.37 12.94C23.94 13.01 23.83 12.99 23.83 13.27C23.83 13.47 23.97 13.52 24.05 13.52C24.09 13.52 24.61 13.44 25.28 13.44C25.97 13.44 26.54 13.54 26.59 13.54C26.71 13.54 26.77 13.43 26.77 13.29C26.77 12.98 26.60 13.01 26.01 12.91C25.72 12.87 25.70 12.67 25.70 12.52L25.70 12.47L25.70 9.16C25.70 9.10 25.70 9.03 25.72 8.97C25.77 8.72 26.35 8.06 27.16 8.06C27.48 8.06 28.25 8.19 28.56 8.90C28.73 9.32 28.74 10.16 28.74 10.42L28.74 12.59C28.74 12.82 28.70 12.89 28.52 12.92C27.96 13.02 27.79 12.99 27.79 13.24C27.79 13.38 27.82 13.52 27.99 13.52C28.01 13.52 28.52 13.44 29.13 13.44C29.83 13.44 30.18 13.52 30.31 13.52C30.39 13.52 30.52 13.48 30.52 13.24C30.52 13.15 30.51 13.02 30.32 12.99C29.83 12.92 29.65 12.95 29.65 12.56L29.65 12.53C29.65 10.60 29.67 10.35 29.67 10.11C29.67 9.87 29.67 9.63 29.64 9.39C29.50 7.66 28.28 7.38 27.65 7.38L27.62 7.38C26.42 7.39 25.76 8.22 25.70 8.22L25.69 8.22C25.68 8.22 25.65 8.20 25.65 8.16ZM32.76 3.43C32.33 3.43 32.14 3.88 32.02 4.21C31.21 6.61 31.19 6.62 31.19 6.71L31.19 6.72C31.19 6.89 31.30 7.04 31.47 7.04C31.57 7.04 31.65 6.99 31.72 6.90C31.77 6.85 32.63 5.31 33.08 4.51C33.17 4.35 33.28 4.17 33.28 3.96C33.28 3.68 33.08 3.43 32.76 3.43ZM34.23 9.11C34.23 9.80 34.65 10.50 35.78 10.82C36.23 10.95 37.46 11.09 37.46 12.01C37.46 12.57 36.96 12.95 36.33 12.95C35.52 12.95 34.87 12.42 34.73 12.12C34.54 11.73 34.76 11.26 34.41 11.26C34.20 11.26 34.16 11.33 34.16 11.69C34.16 11.89 34.17 12.15 34.17 12.53C34.17 12.74 34.20 12.85 34.34 13.01C34.75 13.48 35.63 13.71 36.27 13.71C37.66 13.71 38.40 12.71 38.40 11.82C38.40 11.59 38.35 11.13 37.98 10.71C37.46 10.11 36.81 10.07 36.09 9.87C35.06 9.58 34.99 9.06 34.99 8.86C34.99 8.41 35.39 8.12 35.87 8.12C36.33 8.12 36.83 8.41 37.02 8.67C37.21 8.95 37.17 9.35 37.46 9.35C37.58 9.35 37.79 9.31 37.79 9.13C37.79 9.07 37.60 8.15 37.52 7.66C37.51 7.59 37.46 7.39 37.30 7.39C37.13 7.39 37.07 7.53 36.95 7.53C36.88 7.53 36.67 7.46 36.25 7.46C34.99 7.46 34.23 8.27 34.23 9.11ZM48.16 6.50C48.16 7.34 47.60 7.88 47.01 8.12C46.62 8.27 46.23 8.32 45.72 8.32C44.90 8.32 44.80 8.32 44.80 8.06L44.80 4.77C44.80 4.76 44.79 4.75 44.79 4.73C44.79 4.63 44.80 4.55 44.87 4.51C45.00 4.41 45.53 4.37 45.71 4.37C47.12 4.37 48.16 5.38 48.16 6.50ZM45.99 3.82C45.07 3.82 44.14 3.99 42.90 3.99L42.41 3.99C42.28 3.99 42.22 4.05 42.22 4.26C42.22 4.40 42.29 4.45 42.43 4.48C43.40 4.65 43.61 4.63 43.61 5.08L43.61 12.32C43.61 12.60 43.57 12.77 43.23 12.81C42.59 12.87 42.36 12.84 42.36 13.15C42.36 13.31 42.41 13.52 42.62 13.52C42.67 13.52 43.44 13.44 44.41 13.44C45.37 13.44 46.16 13.52 46.21 13.52C46.40 13.52 46.49 13.40 46.49 13.22C46.49 12.78 46.16 12.84 45.22 12.75C44.87 12.71 44.86 12.47 44.86 12.31L44.86 12.26L44.86 9.03C44.86 8.86 44.93 8.82 45.05 8.82L46.07 8.82C46.17 8.82 46.24 8.82 46.31 8.88C46.40 8.93 46.35 8.88 47.60 10.61L49 12.60C49.17 12.82 49.74 13.62 50.48 13.62C51.30 13.62 51.70 12.81 51.70 12.60C51.70 12.52 51.65 12.45 51.56 12.45C51.38 12.45 51.32 12.75 50.96 12.75C50.67 12.75 50.40 12.53 50.20 12.31C49.67 11.68 49.34 10.72 47.61 8.71C47.60 8.69 47.59 8.68 47.59 8.65C47.59 8.61 47.63 8.60 47.66 8.58C48.03 8.44 49.25 7.66 49.25 6.26C49.25 5.28 48.51 3.82 45.99 3.82ZM52.08 10.56C52.08 12.95 53.63 13.71 54.78 13.71C55.78 13.71 56.69 13.20 57.26 12.46C57.33 12.38 57.36 12.29 57.36 12.24C57.36 12.11 57.26 12.03 57.13 12.03C56.99 12.03 56.88 12.15 56.81 12.22C56.38 12.64 55.76 12.91 55.15 12.91C53.38 12.91 53.07 11.05 53.07 10.88C53.07 10.75 53.16 10.77 56.06 9.77C56.46 9.63 57.19 9.49 57.19 9.07L57.19 9.06C57.19 8.93 57.13 8.82 57.08 8.75C56.56 8.04 55.64 7.41 54.67 7.41C53.27 7.41 52.08 8.60 52.08 10.56ZM55.83 9.10C55.83 9.16 55.79 9.23 55.71 9.27C55.68 9.28 53.13 10.28 53.09 10.28C53.06 10.28 53.02 10.26 53.02 10.18C53.02 8.93 53.55 8.18 54.36 8.18C55.15 8.18 55.83 8.93 55.83 9.10ZM57.93 9.11C57.93 9.80 58.35 10.50 59.49 10.82C59.93 10.95 61.17 11.09 61.17 12.01C61.17 12.57 60.66 12.95 60.03 12.95C59.22 12.95 58.58 12.42 58.44 12.12C58.24 11.73 58.46 11.26 58.11 11.26C57.90 11.26 57.86 11.33 57.86 11.69C57.86 11.89 57.88 12.15 57.88 12.53C57.88 12.74 57.90 12.85 58.04 13.01C58.45 13.48 59.33 13.71 59.98 13.71C61.36 13.71 62.10 12.71 62.10 11.82C62.10 11.59 62.05 11.13 61.68 10.71C61.17 10.11 60.51 10.07 59.79 9.87C58.76 9.58 58.69 9.06 58.69 8.86C58.69 8.41 59.09 8.12 59.57 8.12C60.03 8.12 60.54 8.41 60.72 8.67C60.91 8.95 60.87 9.35 61.17 9.35C61.28 9.35 61.49 9.31 61.49 9.13C61.49 9.07 61.31 8.15 61.22 7.66C61.21 7.59 61.17 7.39 61.00 7.39C60.83 7.39 60.77 7.53 60.65 7.53C60.58 7.53 60.37 7.46 59.95 7.46C58.69 7.46 57.93 8.27 57.93 9.11ZM62.79 8.33L63.24 8.33C63.32 8.33 63.34 8.39 63.34 8.46C63.34 8.76 63.28 10.93 63.28 11.55C63.28 11.70 63.28 11.84 63.29 12.00C63.39 13.31 64.15 13.71 64.71 13.71C65.48 13.71 66.16 13.01 66.65 12.45C66.68 12.40 66.75 12.32 66.75 12.21C66.75 12.08 66.65 11.96 66.50 11.96C66.19 11.96 65.65 12.80 64.97 12.80C64.39 12.80 64.26 12.25 64.26 11.76C64.26 11.42 64.26 11.10 64.27 8.48C64.27 8.39 64.32 8.36 64.41 8.36L66.05 8.36C66.18 8.36 66.25 8.34 66.30 8.29C66.37 8.20 66.43 7.97 66.43 7.88C66.43 7.62 66.19 7.62 66.07 7.62C66.02 7.62 66.00 7.60 65.95 7.60L64.69 7.60C64.53 7.60 64.41 7.56 64.41 7.32C64.41 7.13 64.43 6.54 64.43 6.34C64.43 6.16 64.33 6.12 64.25 6.12C64.09 6.12 64.01 6.30 63.97 6.37C63.21 7.66 62.51 7.91 62.51 8.15C62.51 8.32 62.66 8.33 62.79 8.33Z"></path></g><!----><g data-v-423bf9ae="" id="97c02118-7fd4-409b-ae0d-9f726b9890e2" transform="matrix(1.0868111504448785,0,0,1.0868111504448785,-13.255261890115804,-0.23894260335429607)" stroke="none" fill="white"><g clip-rule="evenodd"><path d="M12.983 10.59l17.018 88.223-5.872-59.049 29.021-1.892-.054-9.883L64.549 1 53.622 18.977z"></path><path d="M59.389 54.548l5.16-53.541-8.74 39.716-19.612 1.045 1.57 20.462-7.766 36.583 12.057-39.899z"></path><path d="M62.8 67.182l.549-10.453-15.979 3.755-.032 11.797-17.337 26.532 21.68-27.616zM65.711 62.394l14.841-4.731 1.509-12.532-15.899 2.095zM72.07 44.502l10.988-1.417 1.581-10.278-8.079-.373L64.549 1l8.43 30.967z"></path><path d="M87.413 31.294l1.256-9.506-9.544-2.694L64.549 1l14.483 22.437-.422 7z"></path></g></g><!----></svg>